<svg xmlns="http://www.w3.org/2000/svg" xmlns:xlink="http://www.w3.org/1999/xlink" width="50" zoomAndPan="magnify" viewBox="0 0 37.5 37.499999" height="50" preserveAspectRatio="xMidYMid meet" version="1.0"><defs><clipPath id="8f564d92ff"><path d="M 0.203125 0 L 36.46875 0 L 36.46875 37 L 0.203125 37 Z M 0.203125 0 " clip-rule="nonzero"/></clipPath></defs><g clip-path="url(#8f564d92ff)"><path fill="#ffffff" d="M 23.003906 35.746094 C 19.972656 34.96875 17.976562 33.632812 15.855469 32.1875 C 11.289062 29.074219 8.207031 25.535156 6.292969 22.949219 C 4.636719 20.707031 2.34375 17.539062 1.144531 12.859375 C 0.203125 9.171875 0.667969 7.390625 0.984375 6.515625 C 1.769531 4.332031 3.832031 1.636719 6.125 1.765625 C 7.207031 1.824219 8.199219 2.847656 10.148438 4.894531 C 12.671875 7.546875 13.933594 8.871094 13.78125 10.261719 C 13.78125 10.261719 13.6875 11.121094 10.371094 14.5625 C 10.371094 14.5625 12.1875 18.03125 14.339844 20.488281 C 17.789062 24.421875 22.78125 26.523438 22.78125 26.523438 C 22.78125 26.523438 24.761719 23.523438 26.851562 23.289062 C 28.007812 23.160156 28.925781 23.945312 30.714844 25.515625 C 33.589844 28.039062 35.453125 29.671875 35.1875 31.664062 C 34.894531 33.886719 32.144531 35.148438 31.246094 35.558594 C 28.09375 37.007812 24.96875 36.25 23.003906 35.746094 Z M 20.9375 1.714844 C 21.320312 1.714844 21.707031 1.726562 22.089844 1.753906 C 22.234375 1.765625 22.375 1.78125 22.519531 1.792969 C 22.582031 1.800781 22.648438 1.808594 22.710938 1.816406 C 22.796875 1.824219 23.117188 1.894531 22.808594 1.824219 C 23.144531 1.902344 23.492188 1.933594 23.832031 2 C 24.660156 2.171875 25.476562 2.40625 26.265625 2.710938 C 26.375 2.753906 26.484375 2.796875 26.597656 2.84375 C 26.792969 2.921875 26.425781 2.769531 26.621094 2.851562 C 26.675781 2.878906 26.734375 2.902344 26.789062 2.925781 C 27.019531 3.03125 27.246094 3.136719 27.472656 3.25 C 27.925781 3.480469 28.367188 3.738281 28.796875 4.011719 C 29.03125 4.164062 29.261719 4.324219 29.488281 4.488281 C 29.527344 4.515625 29.5625 4.546875 29.601562 4.574219 C 29.621094 4.589844 29.808594 4.734375 29.660156 4.617188 C 29.792969 4.722656 29.925781 4.828125 30.058594 4.941406 C 30.488281 5.300781 30.894531 5.683594 31.28125 6.09375 C 31.472656 6.292969 31.65625 6.5 31.832031 6.710938 C 31.90625 6.796875 31.976562 6.886719 32.046875 6.972656 C 32.089844 7.023438 32.132812 7.078125 32.171875 7.128906 C 32.039062 6.960938 32.21875 7.191406 32.238281 7.222656 C 32.53125 7.613281 32.804688 8.023438 33.054688 8.441406 C 33.300781 8.855469 33.523438 9.277344 33.730469 9.714844 C 33.769531 9.800781 33.808594 9.886719 33.847656 9.976562 C 33.871094 10.027344 33.894531 10.078125 33.917969 10.132812 C 33.925781 10.148438 33.933594 10.167969 33.941406 10.183594 C 33.976562 10.269531 33.96875 10.253906 33.921875 10.136719 C 33.980469 10.210938 34.011719 10.359375 34.046875 10.445312 C 34.085938 10.546875 34.125 10.648438 34.160156 10.753906 C 34.429688 11.480469 34.640625 12.226562 34.800781 12.988281 C 34.875 13.351562 34.921875 13.71875 34.988281 14.085938 C 34.988281 14.089844 34.957031 13.84375 34.972656 13.972656 C 34.976562 14.019531 34.984375 14.070312 34.992188 14.117188 C 35 14.199219 35.011719 14.28125 35.019531 14.359375 C 35.035156 14.5 35.046875 14.636719 35.058594 14.773438 C 35.085938 15.140625 35.101562 15.511719 35.097656 15.878906 C 35.097656 16.320312 35.492188 16.746094 35.945312 16.726562 C 36.40625 16.703125 36.789062 16.355469 36.792969 15.878906 C 36.808594 13.21875 36.097656 10.511719 34.847656 8.171875 C 32.789062 4.328125 29.085938 1.539062 24.863281 0.5 C 23.585938 0.1875 22.257812 0.015625 20.9375 0.0234375 C 20.496094 0.0273438 20.070312 0.410156 20.089844 0.871094 C 20.109375 1.324219 20.460938 1.71875 20.9375 1.714844 Z M 20.769531 6.019531 C 21.058594 6.011719 21.351562 6.019531 21.636719 6.039062 C 21.859375 6.050781 22.082031 6.074219 22.304688 6.101562 C 22.488281 6.121094 22.078125 6.066406 22.3125 6.101562 C 22.375 6.109375 22.433594 6.117188 22.492188 6.128906 C 22.632812 6.148438 22.773438 6.175781 22.914062 6.203125 C 23.539062 6.328125 24.15625 6.503906 24.75 6.730469 C 24.828125 6.761719 24.902344 6.792969 24.976562 6.820312 C 25.125 6.882812 24.953125 6.820312 24.945312 6.808594 C 24.957031 6.824219 25.03125 6.84375 25.058594 6.855469 C 25.230469 6.933594 25.40625 7.015625 25.574219 7.101562 C 25.9375 7.285156 26.285156 7.488281 26.621094 7.710938 C 26.78125 7.816406 26.933594 7.925781 27.085938 8.035156 C 27.125 8.066406 27.164062 8.09375 27.199219 8.125 C 27.074219 8.027344 27.179688 8.105469 27.203125 8.128906 C 27.296875 8.207031 27.394531 8.285156 27.488281 8.363281 C 27.8125 8.644531 28.121094 8.941406 28.410156 9.257812 C 28.53125 9.390625 28.648438 9.527344 28.761719 9.664062 C 28.816406 9.734375 28.875 9.800781 28.925781 9.871094 C 28.816406 9.726562 28.890625 9.824219 28.910156 9.855469 C 28.949219 9.90625 28.988281 9.960938 29.027344 10.011719 C 29.238281 10.304688 29.433594 10.613281 29.617188 10.929688 C 29.785156 11.226562 29.941406 11.53125 30.082031 11.84375 C 30.109375 11.898438 30.167969 11.988281 30.171875 12.046875 C 30.164062 11.929688 30.121094 11.917969 30.152344 12 C 30.167969 12.042969 30.1875 12.085938 30.203125 12.128906 C 30.261719 12.277344 30.320312 12.429688 30.371094 12.582031 C 30.554688 13.109375 30.699219 13.648438 30.804688 14.195312 C 30.832031 14.332031 30.855469 14.46875 30.878906 14.609375 C 30.890625 14.671875 30.898438 14.738281 30.90625 14.804688 C 30.925781 14.933594 30.894531 14.691406 30.894531 14.691406 C 30.894531 14.730469 30.902344 14.765625 30.90625 14.804688 C 30.933594 15.019531 30.953125 15.230469 30.96875 15.445312 C 30.984375 15.710938 30.992188 15.972656 30.984375 16.238281 C 30.976562 16.679688 31.382812 17.105469 31.832031 17.085938 C 32.296875 17.0625 32.667969 16.710938 32.679688 16.238281 C 32.71875 14.261719 32.207031 12.242188 31.304688 10.492188 C 29.796875 7.566406 26.996094 5.433594 23.804688 4.667969 C 22.816406 4.429688 21.785156 4.300781 20.765625 4.324219 C 20.324219 4.335938 19.898438 4.707031 19.917969 5.171875 C 19.941406 5.621094 20.296875 6.03125 20.769531 6.019531 Z M 20.824219 10.15625 C 21.027344 10.160156 21.230469 10.171875 21.429688 10.191406 C 21.46875 10.195312 21.507812 10.203125 21.546875 10.207031 C 21.675781 10.21875 21.441406 10.191406 21.441406 10.191406 C 21.515625 10.207031 21.585938 10.214844 21.660156 10.226562 C 21.839844 10.257812 22.015625 10.292969 22.191406 10.339844 C 22.371094 10.382812 22.546875 10.433594 22.722656 10.492188 C 22.816406 10.519531 22.910156 10.554688 23.003906 10.589844 C 23.058594 10.609375 23.117188 10.632812 23.175781 10.65625 C 23.335938 10.71875 23.027344 10.585938 23.203125 10.667969 C 23.640625 10.875 24.058594 11.105469 24.453125 11.390625 C 24.445312 11.386719 24.636719 11.535156 24.546875 11.460938 C 24.449219 11.386719 24.644531 11.542969 24.636719 11.539062 C 24.730469 11.617188 24.824219 11.695312 24.910156 11.78125 C 25.09375 11.949219 25.269531 12.132812 25.429688 12.320312 C 25.460938 12.355469 25.679688 12.625 25.546875 12.453125 C 25.609375 12.535156 25.671875 12.621094 25.730469 12.707031 C 25.859375 12.890625 25.976562 13.082031 26.085938 13.273438 C 26.179688 13.441406 26.265625 13.613281 26.34375 13.785156 C 26.359375 13.816406 26.375 13.851562 26.390625 13.886719 C 26.46875 14.0625 26.320312 13.703125 26.386719 13.882812 C 26.425781 13.980469 26.464844 14.078125 26.5 14.175781 C 26.609375 14.484375 26.703125 14.804688 26.769531 15.125 C 26.800781 15.265625 26.828125 15.410156 26.851562 15.550781 C 26.855469 15.589844 26.863281 15.621094 26.867188 15.660156 C 26.894531 15.804688 26.839844 15.425781 26.855469 15.570312 C 26.863281 15.628906 26.871094 15.691406 26.875 15.75 C 26.894531 15.914062 26.902344 16.074219 26.90625 16.238281 C 26.917969 16.679688 27.289062 17.105469 27.753906 17.082031 C 28.203125 17.0625 28.613281 16.710938 28.601562 16.238281 C 28.566406 14.984375 28.230469 13.734375 27.65625 12.625 C 26.691406 10.765625 24.957031 9.378906 22.953125 8.789062 C 22.265625 8.585938 21.539062 8.476562 20.824219 8.460938 C 20.382812 8.449219 19.957031 8.855469 19.976562 9.304688 C 20 9.777344 20.351562 10.144531 20.824219 10.15625 Z M 20.824219 10.15625 " fill-opacity="1" fill-rule="nonzero"/></g></svg>