<svg xmlns="http://www.w3.org/2000/svg" xmlns:xlink="http://www.w3.org/1999/xlink" width="250" zoomAndPan="magnify" viewBox="0 0 187.5 187.499992" height="250" preserveAspectRatio="xMidYMid meet" version="1.0"><defs><clipPath id="fbc582a1af"><path d="M 36 18.699219 L 153 18.699219 L 153 102 L 36 102 Z M 36 18.699219 " clip-rule="nonzero"/></clipPath><clipPath id="1a7e5f6fd7"><path d="M 1 143 L 62 143 L 62 177.277344 L 1 177.277344 Z M 1 143 " clip-rule="nonzero"/></clipPath><clipPath id="83ebf71861"><path d="M 64 105 L 125 105 L 125 177.277344 L 64 177.277344 Z M 64 105 " clip-rule="nonzero"/></clipPath><clipPath id="1e44d45ed2"><path d="M 127 143 L 187 143 L 187 177.277344 L 127 177.277344 Z M 127 143 " clip-rule="nonzero"/></clipPath></defs><path fill="#dd3e74" d="M 75.847656 130.890625 L 75.847656 140.011719 C 77.726562 139.417969 79.738281 139.082031 81.875 139.082031 L 83.550781 139.082031 C 80.386719 137.074219 77.570312 134.46875 75.847656 130.890625 Z M 75.847656 130.890625 " fill-opacity="1" fill-rule="evenodd"/><path fill="#dd3e74" d="M 118.273438 40.234375 C 117.878906 40.234375 117.488281 40.425781 117.1875 40.714844 L 111.085938 46.492188 C 110.503906 47.042969 110.023438 47.621094 109.765625 48.304688 L 103.382812 65.441406 C 103.136719 66.101562 102.511719 66.546875 101.808594 66.546875 L 64.394531 66.546875 C 59.957031 66.546875 56.847656 68.648438 55.988281 73.242188 L 49.214844 109.507812 C 48.800781 111.765625 50.261719 113.878906 52.511719 114.289062 C 54.769531 114.71875 56.890625 113.25 57.308594 111.003906 L 61.65625 92.246094 C 62.113281 90.246094 63.78125 90.847656 63.511719 92.613281 L 60.316406 112.746094 L 60.316406 149.925781 C 60.316406 151.601562 60.933594 153.136719 61.9375 154.308594 C 62.238281 153.378906 62.597656 152.441406 63.019531 151.492188 C 64.996094 147.074219 68.867188 142.949219 73.933594 140.75 L 73.933594 122.71875 C 73.933594 119.507812 74.523438 116.359375 75.851562 113.496094 L 75.851562 113.488281 C 75.863281 113.488281 75.863281 113.488281 75.863281 113.476562 C 77.910156 109.0625 81.53125 105.371094 86.328125 103.28125 C 87.34375 102.84375 88.394531 102.542969 89.414062 102.242188 L 89.414062 74.742188 L 105.832031 74.765625 C 107.558594 74.765625 109.078125 73.710938 109.679688 72.105469 L 117.480469 51.199219 C 118.164062 49.390625 117.492188 47.457031 115.972656 46.394531 L 119.515625 43.039062 C 120.175781 42.414062 120.117188 41.386719 119.515625 40.714844 C 119.152344 40.324219 118.628906 40.234375 118.273438 40.234375 Z M 118.273438 40.234375 " fill-opacity="1" fill-rule="evenodd"/><g clip-path="url(#fbc582a1af)"><path fill="#dd3e74" d="M 38.480469 18.726562 C 37.140625 18.738281 36.054688 19.820312 36.054688 21.164062 L 36.054688 99.03125 C 36.066406 100.375 37.136719 101.460938 38.480469 101.460938 L 46.957031 101.460938 L 46.957031 96.597656 L 40.917969 96.597656 L 40.917969 23.613281 L 147.929688 23.613281 L 147.929688 96.597656 L 93.902344 96.597656 L 93.902344 101.457031 L 150.351562 101.457031 C 151.691406 101.46875 152.777344 100.382812 152.789062 99.03125 L 152.789062 21.164062 C 152.789062 19.824219 151.691406 18.726562 150.351562 18.726562 Z M 38.480469 18.726562 " fill-opacity="1" fill-rule="evenodd"/></g><path fill="#dd3e74" d="M 124.074219 39.863281 C 123.121094 39.863281 122.363281 40.625 122.347656 41.5625 C 122.347656 42.515625 123.121094 43.289062 124.074219 43.273438 L 137.027344 43.273438 C 137.964844 43.285156 138.738281 42.511719 138.738281 41.5625 C 138.738281 40.625 137.964844 39.863281 137.027344 39.863281 Z M 124.074219 39.863281 " fill-opacity="1" fill-rule="evenodd"/><path fill="#dd3e74" d="M 87.117188 53.863281 C 84.1875 60.636719 76.34375 63.742188 69.566406 60.828125 C 62.804688 57.90625 59.699219 50.050781 62.613281 43.296875 C 65.542969 36.535156 73.390625 33.414062 80.144531 36.332031 C 86.929688 39.25 90.035156 47.097656 87.117188 53.863281 Z M 87.117188 53.863281 " fill-opacity="1" fill-rule="evenodd"/><g clip-path="url(#1a7e5f6fd7)"><path fill="#dd3e74" d="M 18.941406 143.464844 C 11.976562 143.464844 6.324219 148.332031 4.097656 153.28125 C 1.785156 158.433594 1.582031 163.800781 2.253906 167.207031 C 2.921875 170.632812 3.515625 172.375 4.675781 174.015625 C 5.785156 175.558594 7.753906 176.976562 9.5625 177.492188 L 53.449219 177.492188 C 55.25 176.976562 57.214844 175.558594 58.320312 174.015625 C 59.488281 172.375 60.078125 170.632812 60.75 167.207031 C 61.417969 163.800781 61.21875 158.433594 58.90625 153.28125 C 56.679688 148.328125 51.042969 143.464844 44.082031 143.464844 Z M 18.941406 143.464844 " fill-opacity="1" fill-rule="nonzero"/></g><path fill="#dd3e74" d="M 16.683594 128.546875 C 20.226562 136.75 29.742188 140.515625 37.957031 136.984375 C 46.140625 133.449219 49.90625 123.925781 46.375 115.753906 C 42.832031 107.550781 33.316406 103.769531 25.136719 107.304688 C 16.917969 110.847656 13.148438 120.347656 16.683594 128.546875 Z M 16.683594 128.546875 " fill-opacity="1" fill-rule="evenodd"/><g clip-path="url(#83ebf71861)"><path fill="#dd3e74" d="M 81.863281 143.464844 C 74.898438 143.464844 69.234375 148.332031 67.019531 153.28125 C 64.707031 158.433594 64.503906 163.800781 65.175781 167.207031 C 65.84375 170.617188 66.4375 172.375 67.601562 174.015625 C 68.695312 175.558594 70.675781 176.976562 72.476562 177.492188 L 116.375 177.492188 C 118.175781 176.976562 120.140625 175.558594 121.234375 174.015625 C 122.410156 172.375 123 170.617188 123.671875 167.207031 C 124.34375 163.800781 124.140625 158.433594 121.828125 153.28125 C 119.605469 148.328125 113.96875 143.464844 106.992188 143.464844 Z M 94.328125 105.984375 C 92.226562 105.996094 90.105469 106.433594 88.058594 107.316406 C 79.84375 110.847656 76.074219 120.347656 79.609375 128.546875 C 83.152344 136.75 92.664062 140.515625 100.871094 136.984375 C 109.0625 133.449219 112.832031 123.925781 109.300781 115.746094 C 106.632812 109.59375 100.621094 105.941406 94.328125 105.984375 Z M 94.328125 105.984375 " fill-opacity="1" fill-rule="nonzero"/></g><g clip-path="url(#1e44d45ed2)"><path fill="#dd3e74" d="M 144.785156 143.464844 C 137.824219 143.464844 132.15625 148.332031 129.941406 153.28125 C 127.625 158.433594 127.425781 163.800781 128.097656 167.207031 C 128.769531 170.632812 129.359375 172.375 130.523438 174.015625 C 131.621094 175.558594 133.597656 176.976562 135.398438 177.492188 L 179.296875 177.492188 C 181.097656 176.976562 183.0625 175.558594 184.15625 174.015625 C 185.332031 172.375 185.921875 170.632812 186.59375 167.207031 C 187.265625 163.800781 187.066406 158.433594 184.75 153.28125 C 182.527344 148.328125 176.890625 143.464844 169.917969 143.464844 Z M 144.785156 143.464844 " fill-opacity="1" fill-rule="nonzero"/></g><path fill="#dd3e74" d="M 142.527344 128.546875 C 146.074219 136.75 155.585938 140.515625 163.789062 136.984375 C 171.984375 133.449219 175.753906 123.925781 172.207031 115.753906 C 168.664062 107.550781 159.164062 103.769531 150.976562 107.304688 C 142.75 110.847656 138.996094 120.347656 142.527344 128.546875 Z M 142.527344 128.546875 " fill-opacity="1" fill-rule="evenodd"/></svg>