<svg xmlns="http://www.w3.org/2000/svg" xmlns:xlink="http://www.w3.org/1999/xlink" width="50" zoomAndPan="magnify" viewBox="0 0 37.5 37.499999" height="50" preserveAspectRatio="xMidYMid meet" version="1.0"><defs><clipPath id="cd29150f40"><path d="M 0.101562 0 L 37 0 L 37 37 L 0.101562 37 Z M 0.101562 0 " clip-rule="nonzero"/></clipPath></defs><g clip-path="url(#cd29150f40)"><path fill="#ffffff" d="M 31.535156 5.394531 C 28.074219 1.933594 23.476562 0.0234375 18.574219 0.0234375 C 8.476562 0.0234375 0.257812 8.238281 0.253906 18.339844 C 0.253906 21.570312 1.097656 24.722656 2.699219 27.5 L 0.101562 36.992188 L 9.8125 34.445312 C 12.488281 35.90625 15.503906 36.671875 18.566406 36.675781 L 18.574219 36.675781 C 28.671875 36.675781 36.890625 28.457031 36.894531 18.355469 C 36.894531 13.460938 34.992188 8.859375 31.53125 5.394531 Z M 18.574219 33.582031 L 18.570312 33.582031 C 15.839844 33.582031 13.15625 32.847656 10.820312 31.457031 L 10.261719 31.128906 L 4.5 32.640625 L 6.035156 27.019531 L 5.675781 26.445312 C 4.148438 24.019531 3.34375 21.21875 3.347656 18.339844 C 3.351562 9.945312 10.183594 3.113281 18.582031 3.113281 C 22.648438 3.113281 26.46875 4.703125 29.347656 7.582031 C 32.222656 10.457031 33.800781 14.285156 33.800781 18.351562 C 33.796875 26.75 26.964844 33.582031 18.574219 33.582031 Z M 26.925781 22.175781 C 26.46875 21.949219 24.21875 20.839844 23.800781 20.691406 C 23.378906 20.535156 23.074219 20.460938 22.769531 20.917969 C 22.464844 21.378906 21.585938 22.40625 21.320312 22.714844 C 21.054688 23.019531 20.785156 23.058594 20.328125 22.828125 C 19.871094 22.597656 18.394531 22.113281 16.648438 20.554688 C 15.285156 19.339844 14.367188 17.839844 14.101562 17.382812 C 13.832031 16.925781 14.074219 16.675781 14.300781 16.449219 C 14.507812 16.242188 14.757812 15.914062 14.988281 15.644531 C 15.21875 15.378906 15.292969 15.1875 15.445312 14.882812 C 15.597656 14.578125 15.523438 14.308594 15.40625 14.078125 C 15.292969 13.851562 14.378906 11.597656 13.996094 10.679688 C 13.625 9.789062 13.246094 9.910156 12.964844 9.894531 C 12.699219 9.882812 12.394531 9.878906 12.089844 9.878906 C 11.785156 9.878906 11.289062 9.992188 10.867188 10.449219 C 10.449219 10.910156 9.265625 12.015625 9.265625 14.269531 C 9.265625 16.523438 10.90625 18.699219 11.136719 19.007812 C 11.367188 19.3125 14.363281 23.933594 18.957031 25.917969 C 20.046875 26.390625 20.902344 26.671875 21.566406 26.882812 C 22.664062 27.230469 23.664062 27.183594 24.449219 27.0625 C 25.328125 26.933594 27.15625 25.957031 27.539062 24.886719 C 27.921875 23.816406 27.921875 22.902344 27.808594 22.710938 C 27.691406 22.519531 27.386719 22.40625 26.929688 22.175781 Z M 26.925781 22.175781 " fill-opacity="1" fill-rule="evenodd"/></g></svg>