<svg xmlns="http://www.w3.org/2000/svg" xmlns:xlink="http://www.w3.org/1999/xlink" width="50" zoomAndPan="magnify" viewBox="0 0 37.5 37.499999" height="50" preserveAspectRatio="xMidYMid meet" version="1.0"><defs><clipPath id="c092656d94"><path d="M 0.101562 0 L 37.007812 0 L 37.007812 37 L 0.101562 37 Z M 0.101562 0 " clip-rule="nonzero"/></clipPath></defs><g clip-path="url(#c092656d94)"><path fill="#65cf72" d="M 31.710938 5.390625 C 28.234375 1.925781 23.609375 0.015625 18.679688 0.015625 C 8.523438 0.015625 0.257812 8.234375 0.253906 18.339844 C 0.253906 21.570312 1.101562 24.722656 2.714844 27.503906 L 0.101562 37 L 9.867188 34.449219 C 12.558594 35.910156 15.589844 36.679688 18.671875 36.679688 L 18.679688 36.679688 C 28.832031 36.679688 37.101562 28.457031 37.101562 18.355469 C 37.101562 13.457031 35.191406 8.855469 31.710938 5.390625 Z M 18.679688 33.585938 L 18.675781 33.585938 C 15.925781 33.585938 13.230469 32.851562 10.878906 31.460938 L 10.320312 31.132812 L 4.523438 32.644531 L 6.070312 27.023438 L 5.707031 26.445312 C 4.171875 24.023438 3.363281 21.21875 3.367188 18.339844 C 3.371094 9.945312 10.238281 3.109375 18.683594 3.109375 C 22.777344 3.109375 26.621094 4.695312 29.511719 7.578125 C 32.402344 10.457031 33.992188 14.28125 33.992188 18.351562 C 33.988281 26.753906 27.117188 33.585938 18.679688 33.585938 Z M 27.078125 22.179688 C 26.621094 21.949219 24.355469 20.84375 23.933594 20.691406 C 23.511719 20.535156 23.207031 20.460938 22.898438 20.917969 C 22.589844 21.378906 21.710938 22.410156 21.441406 22.714844 C 21.171875 23.019531 20.902344 23.058594 20.441406 22.828125 C 19.984375 22.597656 18.5 22.113281 16.738281 20.554688 C 15.371094 19.339844 14.449219 17.839844 14.179688 17.382812 C 13.910156 16.921875 14.152344 16.675781 14.382812 16.449219 C 14.585938 16.242188 14.839844 15.910156 15.074219 15.644531 C 15.300781 15.378906 15.378906 15.1875 15.53125 14.878906 C 15.6875 14.574219 15.609375 14.308594 15.492188 14.078125 C 15.378906 13.847656 14.457031 11.59375 14.074219 10.679688 C 13.703125 9.785156 13.320312 9.90625 13.039062 9.890625 C 12.769531 9.878906 12.464844 9.875 12.15625 9.875 C 11.851562 9.875 11.351562 9.988281 10.929688 10.449219 C 10.507812 10.90625 9.320312 12.015625 9.320312 14.269531 C 9.320312 16.519531 10.96875 18.699219 11.199219 19.007812 C 11.429688 19.3125 14.445312 23.9375 19.0625 25.921875 C 20.160156 26.390625 21.019531 26.671875 21.6875 26.886719 C 22.792969 27.234375 23.796875 27.1875 24.589844 27.066406 C 25.472656 26.933594 27.3125 25.957031 27.695312 24.890625 C 28.078125 23.820312 28.078125 22.902344 27.964844 22.710938 C 27.847656 22.519531 27.539062 22.40625 27.082031 22.175781 Z M 27.078125 22.179688 " fill-opacity="1" fill-rule="evenodd"/></g></svg>